<svg width="26" height="26" viewBox="0 0 26 26" fill="none" xmlns="http://www.w3.org/2000/svg">
<path fill-rule="evenodd" clip-rule="evenodd" d="M0 6C0 2.68629 2.68629 0 6 0C9.31371 0 12 2.68629 12 6C12 9.31371 9.31371 12 6 12C2.68629 12 0 9.31371 0 6ZM6 4C4.89543 4 4 4.89543 4 6C4 7.10457 4.89543 8 6 8C7.10457 8 8 7.10457 8 6C8 4.89543 7.10457 4 6 4Z" fill="black"/>
<path fill-rule="evenodd" clip-rule="evenodd" d="M0 20C0 16.6863 2.68629 14 6 14C9.31371 14 12 16.6863 12 20C12 23.3137 9.31371 26 6 26C2.68629 26 0 23.3137 0 20ZM6 18C4.89543 18 4 18.8954 4 20C4 21.1046 4.89543 22 6 22C7.10457 22 8 21.1046 8 20C8 18.8954 7.10457 18 6 18Z" fill="black"/>
<path fill-rule="evenodd" clip-rule="evenodd" d="M14 6C14 2.68629 16.6863 0 20 0C23.3137 0 26 2.68629 26 6C26 9.31371 23.3137 12 20 12C16.6863 12 14 9.31371 14 6ZM20 4C18.8954 4 18 4.89543 18 6C18 7.10457 18.8954 8 20 8C21.1046 8 22 7.10457 22 6C22 4.89543 21.1046 4 20 4Z" fill="black"/>
<path fill-rule="evenodd" clip-rule="evenodd" d="M14 20C14 16.6863 16.6863 14 20 14C23.3137 14 26 16.6863 26 20C26 23.3137 23.3137 26 20 26C16.6863 26 14 23.3137 14 20ZM20 18C18.8954 18 18 18.8954 18 20C18 21.1046 18.8954 22 20 22C21.1046 22 22 21.1046 22 20C22 18.8954 21.1046 18 20 18Z" fill="black"/>
</svg>
