<svg width="27" height="26" viewBox="0 0 27 26" fill="none" xmlns="http://www.w3.org/2000/svg">
<path fill-rule="evenodd" clip-rule="evenodd" d="M10.8889 5C9.78435 5 8.88892 5.89543 8.88892 7V19C8.88892 20.1046 9.78435 21 10.8889 21H17.8889C18.9935 21 19.8889 20.1046 19.8889 19V7C19.8889 5.89543 18.9935 5 17.8889 5H10.8889ZM6.88892 7C6.88892 4.79086 8.67978 3 10.8889 3H17.8889C20.0981 3 21.8889 4.79086 21.8889 7V19C21.8889 21.2091 20.0981 23 17.8889 23H10.8889C8.67978 23 6.88892 21.2091 6.88892 19V7Z" fill="black"/>
<path d="M18.8889 7C18.8889 7.55228 18.4412 8 17.8889 8C17.3366 8 16.8889 7.55228 16.8889 7C16.8889 6.44772 17.3366 6 17.8889 6C18.4412 6 18.8889 6.44772 18.8889 7Z" fill="black"/>
</svg>
