<svg width="20" height="12" viewBox="0 0 20 12" fill="none" xmlns="http://www.w3.org/2000/svg">
<path fill-rule="evenodd" clip-rule="evenodd" d="M9.769 2.5293C9.18328 2.5293 8.75255 2.51861 8.39977 2.50985C7.97246 2.49924 7.65952 2.49147 7.32403 2.50898C6.80934 2.53585 6.30814 2.62759 5.33252 2.95153C3.73042 3.48348 2.53212 5.26102 2.19656 6.93217C1.96205 8.10006 1.94257 8.89744 2.10734 9.37573C2.17805 9.58098 2.27387 9.70023 2.39293 9.78275C2.5222 9.87235 2.75526 9.97056 3.17833 9.99666C3.56645 10.0206 3.95206 9.88617 4.33229 9.64689C4.71512 9.40599 5.02509 9.10247 5.26195 8.8665C6.23306 7.89905 7.59767 7.15512 9.769 7.15512C11.9403 7.15512 13.3049 7.89905 14.276 8.8665C14.5129 9.10247 14.8229 9.40599 15.2057 9.64689C15.5859 9.88617 15.9715 10.0206 16.3597 9.99666C16.7827 9.97056 17.0158 9.87235 17.1451 9.78275C17.2641 9.70023 17.3599 9.58098 17.4306 9.37573C17.5954 8.89744 17.5759 8.10006 17.3414 6.93217C17.0059 5.26102 15.8076 3.48348 14.2055 2.95153C13.2299 2.62759 12.7287 2.53585 12.214 2.50898C11.8785 2.49147 11.5655 2.49924 11.1382 2.50985C10.7854 2.51861 10.3547 2.5293 9.769 2.5293ZM9.769 0.5293C10.2134 0.5293 10.6124 0.520531 10.9738 0.512587C11.4913 0.501214 11.9318 0.491534 12.3182 0.511703C13.0723 0.551063 13.759 0.69591 14.8357 1.05342C17.3383 1.88437 18.8776 4.4234 19.3023 6.53844C19.5429 7.73691 19.675 9.00129 19.3216 10.0272C19.1332 10.574 18.8025 11.0674 18.2844 11.4265C17.7764 11.7786 17.1616 11.951 16.4828 11.9929C15.5353 12.0513 14.7331 11.7125 14.1405 11.3396C13.5546 10.971 13.1091 10.527 12.8695 10.2884L12.8645 10.2834C12.2595 9.68064 11.3989 9.15512 9.769 9.15512C8.13904 9.15512 7.27852 9.68064 6.6735 10.2834L6.66847 10.2884C6.42893 10.527 5.98335 10.971 5.3975 11.3396C4.80493 11.7125 4.00265 12.0513 3.0552 11.9929C2.37641 11.951 1.76158 11.7786 1.25364 11.4265C0.735483 11.0674 0.404783 10.574 0.216403 10.0272C-0.137008 9.00129 -0.00494936 7.73691 0.235701 6.53844C0.660394 4.4234 2.19969 1.88437 4.70229 1.05342C5.77902 0.69591 6.46572 0.551063 7.21978 0.511703C7.60619 0.491534 8.04667 0.501214 8.56416 0.512587C8.9256 0.520531 9.32461 0.5293 9.769 0.5293Z" fill="black"/>
<path d="M5.1352 3.69141V7.57705M3.19238 5.63423H7.07802" stroke="black"/>
<circle cx="13.9039" cy="4.33899" r="0.647584" fill="black"/>
<circle cx="13.9039" cy="6.92932" r="0.647584" fill="black"/>
<circle cx="12.6095" cy="5.63391" r="0.647584" fill="black"/>
<circle cx="15.1998" cy="5.63391" r="0.647584" fill="black"/>
</svg>
