<svg width="27" height="26" viewBox="0 0 27 26" fill="none" xmlns="http://www.w3.org/2000/svg">
<path fill-rule="evenodd" clip-rule="evenodd" d="M8.33337 5C7.78109 5 7.33337 5.44772 7.33337 6V20C7.33337 20.5523 7.78109 21 8.33337 21H18.3334C18.8857 21 19.3334 20.5523 19.3334 20V6C19.3334 5.44772 18.8857 5 18.3334 5H8.33337ZM5.33337 6C5.33337 4.34315 6.67652 3 8.33337 3H18.3334C19.9902 3 21.3334 4.34315 21.3334 6V20C21.3334 21.6569 19.9902 23 18.3334 23H8.33337C6.67652 23 5.33337 21.6569 5.33337 20V6Z" fill="black"/>
<path d="M14.3334 19C14.3334 19.5523 13.8857 20 13.3334 20C12.7811 20 12.3334 19.5523 12.3334 19C12.3334 18.4477 12.7811 18 13.3334 18C13.8857 18 14.3334 18.4477 14.3334 19Z" fill="black"/>
</svg>
